<mxfile host="app.diagrams.net" modified="2022-09-20T13:23:49.811Z" agent="5.0 (Macintosh; Intel Mac OS X 10_15_7) AppleWebKit/537.36 (KHTML, like Gecko) Chrome/105.0.0.0 Safari/537.36" etag="tfvFRlA9No3GXKhlJfif" version="20.3.1" type="github">
  <diagram id="JYr65Jm_kDJc_cY_xB6P" name="第 1 页">
    <mxGraphModel dx="1249" dy="809" grid="1" gridSize="10" guides="1" tooltips="1" connect="1" arrows="1" fold="1" page="1" pageScale="1" pageWidth="827" pageHeight="1169" math="0" shadow="0">
      <root>
        <mxCell id="0" />
        <mxCell id="1" parent="0" />
        <mxCell id="j-cVRgfwKiAenDD7w-AU-1" value="" style="rounded=0;whiteSpace=wrap;html=1;" vertex="1" parent="1">
          <mxGeometry x="150" y="390" width="460" height="110" as="geometry" />
        </mxCell>
        <mxCell id="j-cVRgfwKiAenDD7w-AU-2" value="Cloud Native Storage" style="rounded=0;whiteSpace=wrap;html=1;fillColor=#f5f5f5;fontColor=#333333;strokeColor=#666666;" vertex="1" parent="1">
          <mxGeometry x="170" y="450" width="120" height="40" as="geometry" />
        </mxCell>
        <mxCell id="j-cVRgfwKiAenDD7w-AU-3" value="Container Runtime" style="rounded=0;whiteSpace=wrap;html=1;fillColor=#f5f5f5;fontColor=#333333;strokeColor=#666666;" vertex="1" parent="1">
          <mxGeometry x="320" y="450" width="120" height="40" as="geometry" />
        </mxCell>
        <mxCell id="j-cVRgfwKiAenDD7w-AU-4" value="Container Network" style="rounded=0;whiteSpace=wrap;html=1;fillColor=#f5f5f5;fontColor=#333333;strokeColor=#666666;" vertex="1" parent="1">
          <mxGeometry x="470" y="450" width="120" height="40" as="geometry" />
        </mxCell>
        <mxCell id="j-cVRgfwKiAenDD7w-AU-5" value="K8S" style="rounded=0;whiteSpace=wrap;html=1;fillColor=#f5f5f5;fontColor=#333333;strokeColor=#666666;" vertex="1" parent="1">
          <mxGeometry x="170" y="400" width="420" height="40" as="geometry" />
        </mxCell>
        <mxCell id="j-cVRgfwKiAenDD7w-AU-6" value="&lt;b style=&quot;&quot;&gt;&lt;span style=&quot;font-size: 14px;&quot;&gt;分布&lt;/span&gt;&lt;font style=&quot;font-size: 14px;&quot;&gt;式&lt;br&gt;&lt;/font&gt;&lt;span style=&quot;font-size: 14px;&quot;&gt;操作系统&lt;/span&gt;&lt;/b&gt;" style="text;html=1;strokeColor=none;fillColor=none;align=center;verticalAlign=middle;whiteSpace=wrap;rounded=0;" vertex="1" parent="1">
          <mxGeometry x="40" y="420" width="70" height="30" as="geometry" />
        </mxCell>
        <mxCell id="j-cVRgfwKiAenDD7w-AU-7" value="" style="rounded=0;whiteSpace=wrap;html=1;fontSize=14;" vertex="1" parent="1">
          <mxGeometry x="150" y="180" width="310" height="196" as="geometry" />
        </mxCell>
        <mxCell id="j-cVRgfwKiAenDD7w-AU-8" value="&lt;span style=&quot;font-size: 14px;&quot;&gt;&lt;b&gt;基础&lt;br&gt;中间件&lt;/b&gt;&lt;/span&gt;" style="text;html=1;strokeColor=none;fillColor=none;align=center;verticalAlign=middle;whiteSpace=wrap;rounded=0;" vertex="1" parent="1">
          <mxGeometry x="40" y="268" width="70" height="30" as="geometry" />
        </mxCell>
        <mxCell id="j-cVRgfwKiAenDD7w-AU-9" value="RPC" style="rounded=0;whiteSpace=wrap;html=1;fontSize=14;fillColor=#f9f7ed;strokeColor=#36393d;" vertex="1" parent="1">
          <mxGeometry x="170" y="268" width="110" height="40" as="geometry" />
        </mxCell>
        <mxCell id="j-cVRgfwKiAenDD7w-AU-10" value="Gateway" style="rounded=0;whiteSpace=wrap;html=1;fontSize=14;fillColor=#f9f7ed;strokeColor=#36393d;" vertex="1" parent="1">
          <mxGeometry x="170" y="210" width="110" height="40" as="geometry" />
        </mxCell>
        <mxCell id="j-cVRgfwKiAenDD7w-AU-11" value="服务注册/发现" style="rounded=0;whiteSpace=wrap;html=1;fontSize=14;fillColor=#f9f7ed;strokeColor=#36393d;" vertex="1" parent="1">
          <mxGeometry x="325" y="268" width="110" height="40" as="geometry" />
        </mxCell>
        <mxCell id="j-cVRgfwKiAenDD7w-AU-12" value="Service Mesh" style="rounded=0;whiteSpace=wrap;html=1;fontSize=14;fillColor=#f9f7ed;strokeColor=#36393d;" vertex="1" parent="1">
          <mxGeometry x="170" y="325" width="110" height="40" as="geometry" />
        </mxCell>
        <mxCell id="j-cVRgfwKiAenDD7w-AU-13" value="database" style="rounded=0;whiteSpace=wrap;html=1;fontSize=14;fillColor=#f9f7ed;strokeColor=#36393d;" vertex="1" parent="1">
          <mxGeometry x="325" y="325" width="110" height="40" as="geometry" />
        </mxCell>
        <mxCell id="j-cVRgfwKiAenDD7w-AU-14" value="compute" style="rounded=0;whiteSpace=wrap;html=1;fontSize=14;fillColor=#f9f7ed;strokeColor=#36393d;" vertex="1" parent="1">
          <mxGeometry x="325" y="210" width="110" height="40" as="geometry" />
        </mxCell>
        <mxCell id="j-cVRgfwKiAenDD7w-AU-15" value="" style="rounded=0;whiteSpace=wrap;html=1;fontSize=14;" vertex="1" parent="1">
          <mxGeometry x="470" y="180" width="140" height="196" as="geometry" />
        </mxCell>
        <mxCell id="j-cVRgfwKiAenDD7w-AU-16" value="ops" style="text;html=1;strokeColor=none;fillColor=none;align=center;verticalAlign=middle;whiteSpace=wrap;rounded=0;fontSize=14;" vertex="1" parent="1">
          <mxGeometry x="510" y="180" width="60" height="30" as="geometry" />
        </mxCell>
        <mxCell id="j-cVRgfwKiAenDD7w-AU-17" value="image builder" style="rounded=0;whiteSpace=wrap;html=1;fontSize=14;fillColor=#fff2cc;strokeColor=#d6b656;" vertex="1" parent="1">
          <mxGeometry x="485" y="220" width="110" height="40" as="geometry" />
        </mxCell>
        <mxCell id="j-cVRgfwKiAenDD7w-AU-18" value="CI/CD" style="rounded=0;whiteSpace=wrap;html=1;fontSize=14;fillColor=#fff2cc;strokeColor=#d6b656;" vertex="1" parent="1">
          <mxGeometry x="485" y="321" width="110" height="40" as="geometry" />
        </mxCell>
        <mxCell id="j-cVRgfwKiAenDD7w-AU-19" value="&amp;nbsp;image registry" style="rounded=0;whiteSpace=wrap;html=1;fontSize=14;fillColor=#fff2cc;strokeColor=#d6b656;" vertex="1" parent="1">
          <mxGeometry x="485" y="270" width="110" height="40" as="geometry" />
        </mxCell>
        <mxCell id="j-cVRgfwKiAenDD7w-AU-20" value="中间件" style="text;html=1;strokeColor=none;fillColor=none;align=center;verticalAlign=middle;whiteSpace=wrap;rounded=0;fontSize=14;" vertex="1" parent="1">
          <mxGeometry x="275" y="180" width="60" height="30" as="geometry" />
        </mxCell>
        <mxCell id="j-cVRgfwKiAenDD7w-AU-21" value="APPLICATION" style="rounded=0;whiteSpace=wrap;html=1;fontSize=14;fillColor=#f8cecc;strokeColor=#b85450;" vertex="1" parent="1">
          <mxGeometry x="150" y="100" width="460" height="66" as="geometry" />
        </mxCell>
        <mxCell id="j-cVRgfwKiAenDD7w-AU-22" value="&lt;span style=&quot;font-size: 14px;&quot;&gt;&lt;b&gt;应用&lt;/b&gt;&lt;/span&gt;" style="text;html=1;strokeColor=none;fillColor=none;align=center;verticalAlign=middle;whiteSpace=wrap;rounded=0;" vertex="1" parent="1">
          <mxGeometry x="40" y="118" width="70" height="30" as="geometry" />
        </mxCell>
      </root>
    </mxGraphModel>
  </diagram>
</mxfile>
